<?xml version="1.0"?>
<svg xmlns="http://www.w3.org/2000/svg" xmlns:xlink="http://www.w3.org/1999/xlink" xmlns:svgjs="http://svgjs.com/svgjs" version="1.1" width="512" height="512" x="0" y="0" viewBox="0 0 512 512" style="enable-background:new 0 0 512 512" xml:space="preserve" class=""><g><g xmlns="http://www.w3.org/2000/svg"><g><g><path d="m176 312h96v64h-96z" fill="#ffffff" data-original="#ffdaaa" style="" class=""/><g><path d="m328 144v80c0 57.438-64 104-104 104-40 0-104-46.562-104-104v-80" fill="#ffffff" data-original="#ffdaaa" style="" class=""/><path d="m328 144c0-22.091-46.562-40-104-40s-104 17.909-104 40z" fill="#d40406" data-original="#ff9811" style="" class=""/></g></g><g><path d="m304 350.627-32-6.627-15.38 9.07c-25.07 14.77-40.17 14.77-65.24 0l-15.38-9.07-48 9.94-32 7.94-16.81 4.18a80.021 80.021 0 0 0 -60.44 56.31l-2.75 73.63h416" fill="#d40406" data-original="#ff9811" style="" class=""/><path d="m96 144h24v96h-24z" fill="#3e3d42" data-original="#3e3d42" style="" class=""/><path d="m84 152h12a0 0 0 0 1 0 0v80a0 0 0 0 1 0 0h-12a20 20 0 0 1 -20-20v-40a20 20 0 0 1 20-20z" fill="#787680" data-original="#787680" style="" class=""/><path d="m328 144h24v96h-24z" fill="#3e3d42" transform="matrix(-1 0 0 -1 680 384)" data-original="#3e3d42" style="" class=""/><path d="m372 152h12a0 0 0 0 1 0 0v80a0 0 0 0 1 0 0h-12a20 20 0 0 1 -20-20v-40a20 20 0 0 1 20-20z" fill="#787680" transform="matrix(-1 0 0 -1 736 384)" data-original="#787680" style="" class=""/><path d="m200 272h48v32h-48z" fill="#3e3d42" data-original="#3e3d42" style="" class=""/></g><path d="m288 464h208a0 0 0 0 1 0 0v20a12 12 0 0 1 -12 12h-184a12 12 0 0 1 -12-12v-20a0 0 0 0 1 0 0z" fill="#787680" data-original="#787680" style="" class=""/><path d="m316 336h152a12 12 0 0 1 12 12v116a0 0 0 0 1 0 0h-176a0 0 0 0 1 0 0v-116a12 12 0 0 1 12-12z" fill="#acabb1" data-original="#acabb1" style="" class=""/><g fill="#ff9811"><circle cx="392" cy="400" r="24" fill="#d40406" data-original="#ff9811" style="" class=""/><path d="m120 143v-23a104 104 0 0 1 104-104 104 104 0 0 1 104 104v23" fill="#d40406" data-original="#ff9811" style="" class=""/></g></g><g><circle cx="176" cy="192" r="16" fill="#000000" data-original="#000000" style="" class=""/><circle cx="272" cy="192" r="16" fill="#000000" data-original="#000000" style="" class=""/><path d="m496 456h-8v-108a20.02 20.02 0 0 0 -20-20h-152a20.009 20.009 0 0 0 -18.73 13.06l-17.27-3.57v-21.38c23.66-15.86 44.64-40.02 52.6-68.11h19.4a8 8 0 0 0 8-8h4a28.031 28.031 0 0 0 28-28v-40a28.031 28.031 0 0 0 -28-28h-4a8 8 0 0 0 -8-8h-16v-16a112 112 0 0 0 -224 0v16h-16a8 8 0 0 0 -8 8h-4a28.031 28.031 0 0 0 -28 28v40a28.031 28.031 0 0 0 28 28h4v28a28.031 28.031 0 0 0 28 28h28.01a146.34 146.34 0 0 0 23.99 20.11v21.38l-41.62 8.62c-.1.02-.21.04-.31.07l-48.67 12.08a87.81 87.81 0 0 0 -66.34 61.91 7.683 7.683 0 0 0 -.3 1.9l-2.75 73.63a8 8 0 0 0 7.99 8.3h468a20.02 20.02 0 0 0 20-20v-20a8 8 0 0 0 -8-8zm-136-296h4a12.01 12.01 0 0 1 12 12v40a12.01 12.01 0 0 1 -12 12h-4zm-24-8h8v80h-8zm-248 72h-4a12.01 12.01 0 0 1 -12-12v-40a12.01 12.01 0 0 1 12-12h4zm224 124a4 4 0 0 1 4-4h152a4 4 0 0 1 4 4v108h-160zm-88-324a96.107 96.107 0 0 1 95.98 94.36c-20.92-14.65-59.23-22.36-95.98-22.36s-75.06 7.71-95.98 22.36a96.107 96.107 0 0 1 95.98-94.36zm92.16 112h-184.32c10.82-11.76 43.95-24 92.16-24s81.34 12.24 92.16 24zm-212.16 16h8v80h-8zm12 128a12.01 12.01 0 0 1 -12-12v-20h11.4a107.748 107.748 0 0 0 15.45 32zm51.54 16h24.46v8a8 8 0 0 0 8 8h48a8 8 0 0 0 8-8v-32a8 8 0 0 0 -8-8h-48a8 8 0 0 0 -8 8v8h-41.07c-19.65-22.74-22.93-44.24-22.93-56v-72h192v72c0 13.75-4.46 40.8-34.34 67.58-19.26 17.27-43.47 28.42-61.66 28.42-16.59 0-38.17-9.28-56.46-24zm40.46 0v-16h32v16zm8 192h-136v-32a8 8 0 0 0 -16 0v32h-39.7l2.41-64.34a71.856 71.856 0 0 1 54.13-49.77 2.864 2.864 0 0 0 .28-.07l48.66-12.08 44.82-9.28 12.72 7.5c10.54 6.21 19.76 10.02 28.68 11.46zm-20.56-141.82-11.44-6.75v-14.05c13.85 6.81 27.82 10.62 40 10.62s26.15-3.81 40-10.62v14.05l-11.44 6.75c-22.69 13.36-34.43 13.36-57.12 0zm84.56 117.82v20a20.248 20.248 0 0 0 .4 4h-48.4v-116.58c8.92-1.44 18.14-5.25 28.68-11.46l12.72-7.5 22.6 4.68v98.86h-8a8 8 0 0 0 -8 8zm208 20a4 4 0 0 1 -4 4h-184a4 4 0 0 1 -4-4v-12h192z" fill="#000000" data-original="#000000" style="" class=""/><path d="m392 432a32 32 0 1 0 -32-32 32.036 32.036 0 0 0 32 32zm0-48a16 16 0 1 1 -16 16 16.019 16.019 0 0 1 16-16z" fill="#000000" data-original="#000000" style="" class=""/></g></g></g></svg>
